<?xml version="1.0" standalone="no"?>
<!DOCTYPE svg PUBLIC "-//W3C//DTD SVG 20010904//EN"
 "http://www.w3.org/TR/2001/REC-SVG-20010904/DTD/svg10.dtd">
<svg version="1.0" xmlns="http://www.w3.org/2000/svg"
 width="700.000000pt" height="700.000000pt" viewBox="0 0 700.000000 700.000000"
 preserveAspectRatio="xMidYMid meet">
<metadata>
Created by potrace 1.11, written by Peter Selinger 2001-2013
</metadata>
<g transform="translate(0.000000,700.000000) scale(0.100000,-0.100000)"
fill="#000000" stroke="none">
<path d="M3226 6849 c-15 -4 -49 -10 -75 -13 -25 -3 -55 -8 -66 -11 -11 -2
-45 -11 -75 -18 -85 -22 -274 -101 -364 -153 -176 -102 -363 -260 -483 -409
-134 -166 -277 -456 -299 -605 -3 -19 -7 -42 -10 -50 -8 -21 -23 -114 -31
-190 -31 -281 26 -584 159 -850 79 -157 123 -223 244 -364 226 -262 555 -453
878 -510 16 -3 55 -11 85 -17 63 -13 324 -18 416 -7 230 27 484 120 689 252
271 175 493 434 605 705 l38 91 79 -67 c105 -89 238 -225 320 -326 234 -291
428 -693 494 -1026 5 -25 11 -55 13 -66 7 -34 27 -187 32 -240 5 -67 6 -400 0
-450 -14 -137 -20 -177 -30 -225 -3 -14 -8 -36 -11 -50 -38 -191 -108 -388
-206 -585 -60 -120 -184 -321 -218 -355 -3 -3 -25 -32 -50 -65 -60 -82 -89
-114 -205 -231 -312 -315 -688 -530 -1135 -649 -114 -31 -46 -26 93 7 49 11
94 21 100 22 215 45 620 206 832 333 28 16 57 32 65 36 72 32 391 268 521 384
473 426 822 1019 978 1663 16 69 32 141 35 160 3 19 12 73 20 120 8 47 18 121
22 165 4 44 8 94 10 110 14 127 1 521 -20 645 -2 14 -7 49 -10 78 -4 30 -11
73 -16 95 -5 23 -12 58 -15 77 -16 100 -109 400 -173 560 -144 360 -382 725
-671 1025 -138 143 -339 315 -486 415 -44 30 -82 57 -85 60 -6 6 -13 10 -165
99 -206 120 -449 228 -655 291 -116 36 -271 76 -326 85 -20 3 -39 7 -43 9 -3
2 -28 7 -56 10 -27 3 -59 7 -70 10 -11 2 -51 7 -90 11 -38 4 -83 9 -100 11
-66 8 -462 11 -489 3z"/>
<path d="M2765 6790 c-521 -111 -959 -317 -1390 -652 -555 -432 -969 -1086
-1139 -1803 -2 -5 -6 -21 -9 -35 -4 -14 -9 -38 -12 -55 -31 -172 -45 -260 -49
-314 -4 -36 -9 -87 -13 -115 -8 -68 -8 -457 1 -526 4 -30 9 -73 11 -95 12
-106 19 -150 45 -280 96 -467 284 -891 560 -1265 30 -41 57 -77 61 -80 3 -3
12 -15 20 -27 8 -12 41 -52 74 -90 349 -400 770 -705 1258 -912 207 -88 531
-180 727 -207 8 -1 38 -5 65 -8 28 -4 61 -9 75 -11 101 -17 428 -25 529 -13
116 13 185 25 211 34 8 3 26 8 40 10 25 5 96 28 135 45 11 4 45 18 75 30 80
33 173 84 270 147 47 31 87 58 90 61 3 3 31 28 62 54 247 207 442 509 512 792
64 258 73 406 41 665 -1 8 -5 29 -9 45 -3 17 -8 39 -10 50 -15 79 -54 196
-100 303 -151 349 -442 655 -777 815 -130 63 -339 127 -464 142 -27 4 -61 8
-75 11 -77 13 -329 3 -415 -16 -22 -5 -53 -11 -70 -14 -16 -3 -55 -13 -85 -21
-73 -21 -72 -21 -95 -30 -11 -4 -54 -21 -95 -37 -235 -91 -492 -280 -645 -473
-22 -27 -43 -52 -46 -55 -5 -4 -63 -92 -96 -145 -18 -29 -83 -163 -101 -210
-8 -22 -16 -42 -18 -44 -10 -12 -235 196 -336 310 -209 237 -385 548 -493 874
-37 111 -82 303 -91 388 -3 29 -8 55 -10 59 -8 12 -18 208 -18 333 0 130 10
259 24 336 5 26 12 70 16 96 3 26 8 51 10 54 2 4 17 58 33 120 48 184 84 281
178 469 204 411 535 764 955 1018 109 66 385 195 443 206 11 3 47 14 80 26 54
19 151 45 215 57 13 2 27 6 29 9 11 10 -64 0 -184 -26z"/>
<path d="M3888 333 c7 -3 16 -2 19 1 4 3 -2 6 -13 5 -11 0 -14 -3 -6 -6z"/>
</g>
</svg>
